<?xml version="1.0" encoding="UTF-8"?>
<svg version="1.1" xmlns="http://www.w3.org/2000/svg" width="800" height="800">
<path d="M0 0 C264 0 528 0 800 0 C800 264 800 528 800 800 C536 800 272 800 0 800 C0 536 0 272 0 0 Z " fill="#000000" transform="translate(0,0)"/>
<path d="M0 0 C1.35726196 0.28133789 1.35726196 0.28133789 2.74194336 0.56835938 C13.33869613 3.11419726 22.74984646 9.00334331 28.87890625 18.109375 C35.56568303 29.46356007 35.06640846 46.3569708 32.5 59.0625 C23.05620933 89.51655889 -0.83676818 118.14027131 -19.16601562 143.82324219 C-20.63506609 145.88915586 -22.0927073 147.96265081 -23.546875 150.0390625 C-34.06542466 165.04985487 -45.0043264 179.74078428 -56.01660156 194.39160156 C-62.02738921 202.39457155 -67.96504523 210.45030838 -73.89111328 218.51611328 C-76.79871637 222.47179633 -79.71223303 226.42311884 -82.625 230.375 C-83.4902832 231.5496582 -83.4902832 231.5496582 -84.37304688 232.74804688 C-87.29942136 236.72072286 -90.22784293 240.69186142 -93.16015625 244.66015625 C-103.91902772 259.22546379 -114.64527747 273.79871742 -124.78540039 288.8046875 C-127.47005846 292.76840955 -130.20104609 296.69126215 -132.99835205 300.5765686 C-139.5453401 309.67260601 -145.83621985 318.93212182 -152.0625 328.25 C-152.62349396 329.08851501 -153.18448792 329.92703003 -153.76248169 330.79095459 C-164.05241787 346.20461561 -173.69670563 361.93632254 -182.95288086 377.98876953 C-184.0377772 379.86139978 -185.15304078 381.7168843 -186.30297852 383.55029297 C-187.87329914 386.31162131 -188.26054727 388.7407065 -188.625 391.875 C-184.29655147 387.78073992 -180.7335184 383.29432016 -177.125 378.5625 C-170.88576431 370.45761862 -164.48874359 362.49823812 -158.01464844 354.58056641 C-156.11887824 352.25381824 -154.24536479 349.90969693 -152.375 347.5625 C-145.75363971 339.27200514 -139.00214257 331.11123272 -132.07397461 323.07617188 C-128.97112057 319.4701122 -125.93063248 315.82332076 -122.9375 312.125 C-119.38404431 307.74560596 -115.662352 303.56104235 -111.86328125 299.39453125 C-109.59652842 296.84295083 -107.44959913 294.22328468 -105.3125 291.5625 C-100.90128601 286.1083545 -96.18486354 280.99240864 -91.40234375 275.8671875 C-88.6885354 272.95662125 -86.06760244 269.97488008 -83.46484375 266.96484375 C-81.05829774 264.23129362 -78.59193297 261.55389298 -76.125 258.875 C-72.47209091 254.90696211 -68.87128383 250.90175729 -65.33203125 246.83203125 C-51.27203255 230.71290231 -36.33318562 215.4151497 -21.19482422 200.31445312 C-18.59614686 197.72120716 -16.00295419 195.12256052 -13.41015625 192.5234375 C-11.73209188 190.84603293 -10.05371787 189.16893806 -8.375 187.4921875 C-7.61340576 186.72856903 -6.85181152 185.96495056 -6.06713867 185.17819214 C-1.97804314 181.10678829 2.19180351 177.19368814 6.57365417 173.43823242 C9.70222384 170.72321709 12.68158407 167.84912031 15.6875 165 C20.92143242 160.07352447 26.24633571 155.40771409 31.8671875 150.92578125 C34.28034903 148.95240149 36.54068215 146.88329237 38.8125 144.75 C46.79879669 137.4781324 55.65983501 131.23427316 64.375 124.875 C65.00374023 124.41528809 65.63248047 123.95557617 66.28027344 123.48193359 C82.8395842 111.4593544 105.37532954 95.41876576 126.7578125 96.44140625 C136.4590435 98.04862512 143.24494239 104.56824029 149.375 111.875 C153.04614778 117.10565911 154.35917395 122.51862477 154.375 128.875 C153.79640584 132.17477837 152.76271038 135.22904453 151.625 138.375 C151.31062988 139.27661865 150.99625977 140.1782373 150.67236328 141.10717773 C146.54289339 152.63208118 141.47610026 163.7553591 136.375 174.875 C135.87726074 175.9666748 135.37952148 177.05834961 134.86669922 178.18310547 C128.03507347 193.14626656 120.93779453 207.97069205 113.73730469 222.75854492 C106.3517113 237.93468848 99.1182817 253.18230012 91.8997345 268.4384613 C89.63957954 273.21317286 87.37003986 277.98322105 85.08963013 282.74829102 C76.98023871 299.69637825 69.12549691 316.73786518 61.5625 333.9375 C60.98494461 335.24773636 60.98494461 335.24773636 60.39572144 336.58444214 C56.43280818 345.5896286 52.58262033 354.5674811 49.375 363.875 C48.84532757 365.32137031 48.3129048 366.76673727 47.77734375 368.2109375 C43.50812154 379.90384703 39.60561267 391.2513487 40.375 403.875 C53.57842997 402.54889131 64.72921465 386.65912256 72.77734375 376.98828125 C74.20428361 375.22073369 75.62881143 373.45123585 77.05078125 371.6796875 C79.81629376 368.3424808 82.69432037 365.12967954 85.625 361.9375 C86.1207251 361.39343506 86.6164502 360.84937012 87.12719727 360.28881836 C90.01088034 357.17610981 92.99291066 354.43625379 96.375 351.875 C96.705 352.535 97.035 353.195 97.375 353.875 C96.45239258 355.86791992 96.45239258 355.86791992 94.95703125 358.41796875 C92.23520738 363.23748901 89.75905806 368.11664983 87.38671875 373.11328125 C87.03610382 373.84723114 86.68548889 374.58118103 86.32424927 375.33737183 C84.87229679 378.37841907 83.42361614 381.42089711 81.98754883 384.46948242 C77.11754021 394.78981738 71.79300461 404.43556777 65.375 413.875 C64.715 414.865 64.055 415.855 63.375 416.875 C62.715 416.875 62.055 416.875 61.375 416.875 C61.14039063 417.47828125 60.90578125 418.0815625 60.6640625 418.703125 C59.04741176 421.42693655 57.56577827 422.21275208 54.75 423.625 C53.52410156 424.26695312 53.52410156 424.26695312 52.2734375 424.921875 C44.59502042 427.44685312 38.50544384 425.25376655 31.3125 422.375 C30.39726563 422.01696289 29.48203125 421.65892578 28.5390625 421.29003906 C3.28000407 411.17758385 3.28000407 411.17758385 -1.4140625 402.609375 C-2.69199274 398.66840305 -3.08410359 395.22128229 -3 391.125 C-2.99057373 390.3932959 -2.98114746 389.6615918 -2.97143555 388.90771484 C-1.53251004 334.75596056 29.12337044 282.21815389 52.75 234.9375 C53.25397308 233.92846619 53.75794617 232.91943237 54.27719116 231.87982178 C59.70794145 221.01964974 65.22031452 210.21152557 70.90338135 199.48120117 C74.57608102 192.53197739 78.08616378 185.51773555 81.5 178.4375 C81.79460114 177.82723969 82.08920227 177.21697937 82.39273071 176.58822632 C94.68625192 153.41536044 94.68625192 153.41536044 99.5625 128.25 C99.52189453 126.99316406 99.52189453 126.99316406 99.48046875 125.7109375 C99.44566406 125.10507812 99.41085937 124.49921875 99.375 123.875 C86.07757044 123.64573397 74.92232995 134.67273587 65.375 142.875 C64.28720406 143.78994984 63.19862612 144.70397054 62.109375 145.6171875 C49.9521017 155.86078403 38.36407579 166.68967208 27.25390625 178.05859375 C25.2521415 180.06556323 23.17101569 181.91562712 21.0078125 183.74658203 C14.84772273 189.11851188 9.14186589 194.96425324 3.37109375 200.74609375 C2.12148855 201.9950238 0.87173507 203.24380551 -0.37815857 204.4924469 C-2.98607304 207.09889431 -5.59218907 209.70712294 -8.19702148 212.31665039 C-11.51755965 215.64288521 -14.84256812 218.96460934 -18.16894627 222.28500271 C-20.74713426 224.85955823 -23.32291244 227.43651415 -25.89799309 230.01417732 C-27.1223326 231.23917868 -28.34740084 232.46345219 -29.57324409 233.68694878 C-38.16586533 242.25977075 -38.16586533 242.25977075 -46.27540588 251.28729248 C-48.43646976 253.82964008 -50.72583361 256.24601506 -53 258.6875 C-57.63688063 263.71217232 -62.01028111 268.90251453 -66.29541016 274.23193359 C-69.04752536 277.63291327 -71.84058338 281.00046431 -74.625 284.375 C-79.97187349 290.86399284 -85.31085045 297.35915834 -90.625 303.875 C-91.10791504 304.46603516 -91.59083008 305.05707031 -92.08837891 305.66601562 C-99.24300676 314.4249879 -106.31715475 323.2389943 -113.27783203 332.15283203 C-114.64895438 333.90562236 -116.02484804 335.65455868 -117.40234375 337.40234375 C-123.02313747 344.5344955 -128.60332435 351.69614308 -134.12011719 358.90917969 C-135.21583245 360.34050664 -136.31303911 361.77069225 -137.41113281 363.20019531 C-146.14068865 374.56575191 -154.71440658 386.01905227 -163.04833984 397.67773438 C-164.64398322 399.90145541 -166.25160505 402.11600143 -167.86328125 404.328125 C-175.66005654 415.03789136 -183.21296734 425.89575312 -190.625 436.875 C-191.11291016 437.5959082 -191.60082031 438.31681641 -192.10351562 439.05957031 C-203.56771676 456.02317511 -214.73292308 473.20699247 -225.1875 490.8125 C-237.06023605 510.7343161 -237.06023605 510.7343161 -243.625 512.875 C-252.76644679 515.06269667 -263.50177914 515.11792408 -271.93359375 510.65234375 C-277.54589335 507.19649424 -282.54881378 503.19399901 -284.21484375 496.5078125 C-288.48137516 469.1207442 -265.74935088 437.95420087 -252.5625 415.03515625 C-250.02853683 410.62092131 -247.64394292 406.14845479 -245.3125 401.625 C-239.94140459 391.28919565 -233.86543179 381.35696171 -227.8914032 371.36314392 C-224.16627189 365.12304499 -220.50796856 358.8443454 -216.84664917 352.56668091 C-211.44690134 343.31385575 -206.00299876 334.10214211 -200.2578125 325.05859375 C-198.12880226 321.69988202 -196.05639496 318.30906269 -193.9921875 314.91015625 C-185.77755681 301.40169712 -177.24346081 288.20943582 -168.23828125 275.21582031 C-166.03764781 272.02277045 -163.88880189 268.79715284 -161.75 265.5625 C-157.51351289 259.17046694 -153.19656732 252.83474148 -148.875 246.5 C-141.48812142 235.66696963 -134.20564387 224.76686417 -126.94458008 213.84924316 C-120.96871672 204.86591579 -114.9574595 195.91095044 -108.84204102 187.02172852 C-104.40603057 180.57237777 -100.05739633 174.06731563 -95.73193359 167.54345703 C-94.03408558 164.98432749 -92.32933996 162.42980899 -90.625 159.875 C-89.65433594 158.41707031 -89.65433594 158.41707031 -88.6640625 156.9296875 C-87.24693871 154.80671661 -85.82468531 152.68716451 -84.3984375 150.5703125 C-67.58439129 125.57730697 -51.8183244 99.87936375 -36.625 73.875 C-36.22410156 73.19324707 -35.82320312 72.51149414 -35.41015625 71.80908203 C-19.91069335 47.42354698 -19.91069335 47.42354698 -15.625 19.875 C-18.20969855 16.11543848 -20.95555831 14.15570926 -25.453125 13.15625 C-43.29620963 10.84563472 -61.20020266 15.95932975 -78.10009766 21.11083984 C-80.54441939 21.85061233 -82.99450839 22.56508341 -85.44921875 23.26953125 C-86.94532338 23.70048306 -88.44141769 24.13147071 -89.9375 24.5625 C-90.60023926 24.75247559 -91.26297852 24.94245117 -91.94580078 25.13818359 C-95.87896073 26.28898593 -99.70541638 27.61020615 -103.52905273 29.07397461 C-105.74926649 29.92249195 -107.97842323 30.74301547 -110.2109375 31.55859375 C-110.99726563 31.84669922 -111.78359375 32.13480469 -112.59375 32.43164062 C-114.18976667 33.01589673 -115.78611791 33.59923973 -117.3828125 34.18164062 C-123.17519463 36.30646054 -128.90814006 38.55519301 -134.625 40.875 C-136.32148682 41.56154663 -136.32148682 41.56154663 -138.05224609 42.26196289 C-195.2785017 65.46344676 -252.18448668 91.07669077 -306.01464844 121.41162109 C-308.99195784 123.08071879 -311.98344237 124.72271006 -314.9765625 126.36328125 C-331.06278481 135.2004372 -346.89592374 144.41850313 -362.625 153.875 C-363.65705566 154.49294434 -364.68911133 155.11088867 -365.75244141 155.74755859 C-377.91313626 163.03462562 -389.86891192 170.54248658 -401.59765625 178.50634766 C-403.53512022 179.81432249 -405.48307827 181.10425646 -407.4375 182.38671875 C-422.15306971 192.05108 -436.33404072 202.37242822 -449.96142578 213.52001953 C-451.52611816 214.79446079 -453.10443424 216.05212329 -454.68359375 217.30859375 C-459.95331799 221.52583492 -464.81497615 225.92262636 -469.51171875 230.76953125 C-471.46725171 232.71783488 -473.48677856 234.4457141 -475.625 236.1875 C-481.73301816 241.41243119 -489.84509635 250.13454639 -490.9609375 258.34765625 C-490.97382813 259.20230469 -490.98671875 260.05695313 -491 260.9375 C-491.04253906 262.22333984 -491.04253906 262.22333984 -491.0859375 263.53515625 C-490.81496287 265.9722729 -490.81496287 265.9722729 -489.015625 267.6484375 C-485.92800338 269.23260938 -483.45731374 269.31653304 -480 269.4375 C-473.83386814 269.66613186 -473.83386814 269.66613186 -471.625 271.875 C-471.6875 273.875 -471.6875 273.875 -472.625 275.875 C-480.62662192 279.9118543 -489.88511201 278.71179015 -498.12207031 276.02954102 C-511.68561517 271.20247919 -527.56682004 264.24314296 -534.625 250.875 C-536.43979294 245.73773999 -535.94607737 241.84644877 -533.6875 236.9375 C-529.26559606 229.07090845 -523.64490359 222.37283191 -516.7109375 216.62109375 C-514.51571977 214.78352386 -512.45857534 212.83794729 -510.375 210.875 C-492.44522811 194.82691331 -471.70813107 182.01111122 -451.625 168.875 C-450.56394043 168.17922852 -449.50288086 167.48345703 -448.40966797 166.76660156 C-434.72049489 157.8198237 -420.67881574 149.5514237 -406.45703125 141.48193359 C-404.10321504 140.14634581 -401.75358766 138.8039504 -399.40625 137.45703125 C-357.6358629 113.59607473 -314.41205968 91.77366808 -270.625 71.875 C-269.47821777 71.34986816 -268.33143555 70.82473633 -267.14990234 70.28369141 C-216.73579926 47.21021796 -164.36242153 25.85408229 -110.625 11.875 C-109.39765137 11.55547363 -108.17030273 11.23594727 -106.90576172 10.90673828 C-102.71150136 9.81980312 -98.51266885 8.75134176 -94.3125 7.6875 C-93.64939819 7.51851196 -92.98629639 7.34952393 -92.30310059 7.17541504 C-82.46931694 4.67892593 -72.61493106 2.63108177 -62.625 0.875 C-61.20417114 0.62061157 -61.20417114 0.62061157 -59.75463867 0.36108398 C-40.03049881 -3.04569131 -19.6843056 -4.13417397 0 0 Z " fill="#ECF5F6" transform="translate(590.625,160.125)"/>
<path d="M0 0 C0.33 0.66 0.66 1.32 1 2 C-0.125 5.0625 -0.125 5.0625 -2 8 C-4.3125 8.5625 -4.3125 8.5625 -7 9 C-9.17357348 10.51740035 -11.02973953 12.21301958 -13 14 C-11.47238013 10.37190281 -9.29392861 8.05653702 -6.5 5.3125 C-5.7059375 4.52488281 -4.911875 3.73726562 -4.09375 2.92578125 C-2 1 -2 1 0 0 Z " fill="#D7DEDE" transform="translate(687,512)"/>
<path d="M0 0 C3 4 3 4 3 6 C2.34 6 1.68 6 1 6 C0.773125 6.639375 0.54625 7.27875 0.3125 7.9375 C-0.120625 8.618125 -0.55375 9.29875 -1 10 C-2.65 10.33 -4.3 10.66 -6 11 C-4.02 7.37 -2.04 3.74 0 0 Z " fill="#E1E9EA" transform="translate(363,531)"/>
<path d="M0 0 C2.1519437 3.22791555 2.20086443 4.28400809 2 8 C0.03533587 9.06775224 -1.96855359 10.06553465 -4 11 C-4.66 10.67 -5.32 10.34 -6 10 C-4.02 6.7 -2.04 3.4 0 0 Z " fill="#DFE7E8" transform="translate(539,259)"/>
<path d="M0 0 C-1.22934015 3.68802044 -2.93859378 4.72356973 -6 7 C-6.99 6.01 -7.98 5.02 -9 4 C-2.25 0 -2.25 0 0 0 Z " fill="#D2D9DA" transform="translate(689,265)"/>
<path d="M0 0 C-2.52788007 2.79872437 -4.20411134 4.45773019 -8 5 C-8.66 4.01 -9.32 3.02 -10 2 C-8.71211992 1.46987262 -7.41953322 0.9511671 -6.125 0.4375 C-5.40570313 0.14746094 -4.68640625 -0.14257812 -3.9453125 -0.44140625 C-2 -1 -2 -1 0 0 Z " fill="#D0D8D8" transform="translate(385,206)"/>
<path d="M0 0 C0.66 0.33 1.32 0.66 2 1 C0.02 3.97 -1.96 6.94 -4 10 C-4.66 8.68 -5.32 7.36 -6 6 C-5.34 6 -4.68 6 -4 6 C-3.34 4.68 -2.68 3.36 -2 2 C-1.34 2 -0.68 2 0 2 C0 1.34 0 0.68 0 0 Z " fill="#DBE2E2" transform="translate(434,545)"/>
<path d="M0 0 C0.99 0 1.98 0 3 0 C2.67 1.98 2.34 3.96 2 6 C0.68 5.67 -0.64 5.34 -2 5 C-1.34 3.35 -0.68 1.7 0 0 Z " fill="#DBE3E4" transform="translate(620,443)"/>
<path d="M0 0 C0.66 0 1.32 0 2 0 C1.8125 2.375 1.8125 2.375 1 5 C-1.5625 6.3125 -1.5625 6.3125 -4 7 C-2.68 4.69 -1.36 2.38 0 0 Z " fill="#E3EBEC" transform="translate(460,380)"/>
<path d="M0 0 C-0.66 1.98 -1.32 3.96 -2 6 C-3.98 5.34 -5.96 4.68 -8 4 C-2.7826087 0 -2.7826087 0 0 0 Z " fill="#D5DCDD" transform="translate(335,226)"/>
<path d="M0 0 C0.33 0.99 0.66 1.98 1 3 C1.99 3.33 2.98 3.66 4 4 C2.35 4.33 0.7 4.66 -1 5 C-1.33 6.32 -1.66 7.64 -2 9 C-2.66 8.67 -3.32 8.34 -4 8 C-2.68 5.36 -1.36 2.72 0 0 Z " fill="#D6DDDE" transform="translate(641,400)"/>
<path d="M0 0 C0 1.32 0 2.64 0 4 C-1.32 4.33 -2.64 4.66 -4 5 C-4 4.34 -4 3.68 -4 3 C-4.66 2.67 -5.32 2.34 -6 2 C-2.25 0 -2.25 0 0 0 Z " fill="#E6EFEF" transform="translate(235,306)"/>
<path d="M0 0 C1.32 0.99 2.64 1.98 4 3 C3.01 3.33 2.02 3.66 1 4 C1 4.66 1 5.32 1 6 C-0.98 6.99 -0.98 6.99 -3 8 C-1.125 2.25 -1.125 2.25 0 0 Z " fill="#DFE6E8" transform="translate(568,208)"/>
<path d="M0 0 C0.99 0.33 1.98 0.66 3 1 C2.34 2.32 1.68 3.64 1 5 C0.01 5 -0.98 5 -2 5 C-1.125 1.125 -1.125 1.125 0 0 Z " fill="#DCE3E4" transform="translate(620,330)"/>
</svg>
