<?xml version="1.0" encoding="UTF-8"?>
<svg version="1.1" xmlns="http://www.w3.org/2000/svg" width="1069" height="380">
<path d="M0 0 C352.77 0 705.54 0 1069 0 C1069 125.4 1069 250.8 1069 380 C716.23 380 363.46 380 0 380 C0 254.6 0 129.2 0 0 Z " fill="#000000" transform="translate(0,0)"/>
<path d="M0 0 C1.9025354 -0.04024292 1.9025354 -0.04024292 3.84350586 -0.08129883 C14.37190831 -0.03900495 25.55886565 2.42516252 33.6875 9.5625 C40.33462616 18.2100646 41.32819934 24.70493433 40.6875 35.5625 C37.34221275 54.77330397 24.79022839 72.02587813 13.6875 87.5625 C12.89738525 88.67359131 12.89738525 88.67359131 12.09130859 89.80712891 C6.68281732 97.40281856 1.22243677 104.9495632 -4.5 112.3125 C-7.78534681 116.54179076 -10.96771012 120.81871533 -14.0625 125.1875 C-21.86909192 136.20409039 -29.83814837 147.10944163 -38.11230469 157.7800293 C-45.92879679 167.86563016 -53.17886141 178.31339486 -60.41845703 188.81787109 C-66.81860782 198.09223243 -73.20050955 207.31536101 -80.31640625 216.05859375 C-89.23438494 227.24533414 -96.99455675 238.77829654 -101.3125 252.5625 C-95.32109207 245.68231428 -89.39952496 238.77715212 -83.8125 231.5625 C-79.58193404 226.10328515 -75.17888299 220.82773345 -70.65673828 215.6081543 C-67.60201438 212.07976429 -64.61852342 208.50781776 -61.6875 204.875 C-57.83555507 200.12985045 -53.78062811 195.60761859 -49.64453125 191.109375 C-47.68844748 188.97308251 -45.77062303 186.81469343 -43.875 184.625 C-40.48642048 180.72614027 -36.9953247 176.92402318 -33.49804688 173.12304688 C-30.6029683 169.975192 -27.72888992 166.81037622 -24.875 163.625 C-20.87287446 159.16467047 -16.81408829 154.75929445 -12.73876953 150.3659668 C-9.86298645 147.26104669 -7.03940849 144.1206421 -4.25 140.9375 C0.40574712 135.74257628 5.32588621 130.81466511 10.25 125.875 C11.05381104 125.06659668 11.85762207 124.25819336 12.68579102 123.42529297 C19.82820031 116.30119567 27.3360966 109.76251875 35.1875 103.4375 C39.40889485 100.03215535 43.62548099 96.62441842 47.7890625 93.1484375 C82.57758739 64.21269903 82.57758739 64.21269903 100.9375 65.625 C109.04432563 67.65170641 113.84328703 71.89828611 118.6875 78.5625 C122.69754003 90.59262008 115.72055297 103.02938781 110.6875 113.75 C109.96421509 115.30763062 109.96421509 115.30763062 109.22631836 116.89672852 C107.72294214 120.1232444 106.20790887 123.34397857 104.6875 126.5625 C104.23906738 127.51189453 103.79063477 128.46128906 103.32861328 129.43945312 C98.7390279 139.12275085 94.07533927 148.7690049 89.3223877 158.37309265 C80.15011319 176.90805548 71.19786493 195.50319158 62.875 214.4375 C62.50872498 215.26660889 62.14244995 216.09571777 61.76507568 216.94995117 C49.9057704 241.38269154 49.9057704 241.38269154 44.6875 267.5625 C56.76341371 260.92892264 64.62808445 251.48182901 72.93359375 240.71875 C74.75762159 238.47629261 76.4794619 236.43443981 78.6875 234.5625 C80.0075 234.5625 81.3275 234.5625 82.6875 234.5625 C82.06869514 239.12073861 80.21886656 242.84218538 78.125 246.875 C77.39941764 248.2954085 76.67416713 249.71598657 75.94921875 251.13671875 C75.57587402 251.8642334 75.2025293 252.59174805 74.81787109 253.34130859 C73.70001097 255.53791581 72.60571835 257.744611 71.51953125 259.95703125 C70.99564819 261.02087036 70.99564819 261.02087036 70.46118164 262.10620117 C69.79760774 263.45534677 69.13648251 264.8057006 68.47827148 266.1574707 C64.66201426 273.86701053 60.77425599 280.02548897 52.6875 283.5625 C40.40656069 284.73211327 29.33845981 279.90947442 19.6875 272.5625 C18.93597656 272.05847656 18.18445313 271.55445313 17.41015625 271.03515625 C14.52633698 266.89579662 15.09933156 262.41453184 15.1875 257.5 C15.20031006 256.42524414 15.21312012 255.35048828 15.22631836 254.24316406 C16.0176654 222.56110382 31.07596075 192.35221629 46.53125 165.3671875 C48.32525096 162.23385078 49.98044905 159.05938365 51.5625 155.8125 C53.90783122 151.00824601 56.44388155 146.32960908 59.02563477 141.64990234 C69.27866471 123.05953604 76.85696275 105.29846479 81.6875 84.5625 C69.88323208 90.56545885 60.39857483 97.61538401 50.6875 106.5625 C50.11827316 107.08507889 49.54904633 107.60765778 48.96257019 108.14607239 C37.07084244 119.08856269 25.62350871 130.47049444 14.21166992 141.90795898 C11.62004199 144.50534403 9.02386357 147.0981275 6.42639065 149.68966579 C4.39208553 151.72033644 2.36019341 153.75340818 0.32899666 155.78718758 C-1.08479319 157.20195033 -2.50056376 158.61473285 -3.91639709 160.02745056 C-8.91791234 165.04711256 -13.7304092 170.15708633 -18.3125 175.5625 C-18.80604477 176.1386908 -19.29958954 176.71488159 -19.80809021 177.30853271 C-21.10725573 178.82567631 -22.39860056 180.34912802 -23.6875 181.875 C-24.39229492 182.70837891 -24.39229492 182.70837891 -25.11132812 183.55859375 C-28.79750523 187.92813522 -32.41970566 192.34734513 -36.0234375 196.78515625 C-38.01400358 199.20033114 -40.04495044 201.57384548 -42.09301758 203.94018555 C-47.89928968 210.67638901 -53.24947579 217.70508706 -58.55102539 224.84326172 C-62.75215916 230.49747105 -67.02810995 236.08227262 -71.375 241.625 C-73.69309001 244.59985545 -76.00466898 247.57968036 -78.3125 250.5625 C-78.82474121 251.22282227 -79.33698242 251.88314453 -79.86474609 252.56347656 C-97.15308529 275.00448407 -112.9338498 299.07909839 -127.48461914 323.37451172 C-136.87816909 339.00887411 -136.87816909 339.00887411 -142.9375 341.75 C-150.06994399 343.46706985 -155.77016524 343.14226807 -162.3125 339.5625 C-166.75483505 336.40160775 -169.57450312 333.77649065 -171.3125 328.5625 C-172.74014238 318.97183228 -169.25853965 311.90980774 -164.9375 303.5625 C-164.28597001 302.26725625 -163.63608506 300.97118381 -162.98779297 299.67431641 C-161.70204258 297.11327867 -160.40307211 294.55975102 -159.08984375 292.01269531 C-157.61496921 289.14965589 -156.16134469 286.27779115 -154.71875 283.3984375 C-148.26007367 270.66573568 -140.86055453 258.46305032 -133.51269531 246.23046875 C-131.64010508 243.11192358 -129.77749835 239.98754131 -127.91784668 236.86126709 C-110.03911136 206.80687463 -91.14183086 177.46855244 -71.01171875 148.8671875 C-53.69695981 124.26277159 -37.2712005 99.06501079 -21.3125 73.5625 C-20.62929688 72.47195312 -19.94609375 71.38140625 -19.2421875 70.2578125 C-17.243959 67.03890884 -15.27295866 63.80445667 -13.3125 60.5625 C-12.80509277 59.72750977 -12.29768555 58.89251953 -11.77490234 58.03222656 C-10.02878472 55.15160874 -8.29459503 52.26406818 -6.5625 49.375 C-6.00699463 48.46000732 -5.45148926 47.54501465 -4.87915039 46.60229492 C1.34136211 36.1632415 5.10264359 26.80923582 4.6875 14.5625 C2.35582256 12.23082256 -3.31599066 13.32119858 -6.4375 13.3125 C-15.0286503 13.3221244 -22.85211505 13.85583619 -31.19775391 16.01904297 C-33.65951469 16.65167741 -36.13177178 17.23222343 -38.60546875 17.81640625 C-73.92886215 26.36500375 -106.58767859 43.42315549 -138.5 60.4375 C-156.08357723 69.78214214 -174.14778111 78.17952947 -192.30014038 86.35021973 C-219.14227287 98.43506233 -243.23505919 111.87858593 -264.78442383 132.16186523 C-266.45844351 133.69627183 -268.17976639 135.16553419 -269.90625 136.640625 C-275.13410662 141.19371978 -280.00567071 146.10581021 -284.89526367 151.01489258 C-286.50392335 152.62893648 -288.11789248 154.23753303 -289.73242188 155.84570312 C-290.77375844 156.8877002 -291.81478491 157.93000728 -292.85546875 158.97265625 C-293.78383545 159.90215088 -294.71220215 160.83164551 -295.66870117 161.78930664 C-301.33342582 167.24418958 -301.33342582 167.24418958 -303.625 174.4375 C-303.521875 175.46875 -303.41875 176.5 -303.3125 177.5625 C-300.0125 178.5525 -296.7125 179.5425 -293.3125 180.5625 C-294.3125 184.5625 -294.3125 184.5625 -295.3125 186.5625 C-307.90591838 187.35370953 -318.13580366 184.08827369 -328.3125 176.5625 C-332.02591552 172.94720318 -335.13852501 169.73718739 -335.5625 164.4375 C-335.01261941 155.91435084 -331.46903415 150.34778586 -325.3125 144.5625 C-321.35722044 141.19588898 -317.22796887 138.05560754 -313.08837891 134.92089844 C-311.48202994 133.69217619 -309.90143702 132.42996056 -308.32421875 131.1640625 C-267.29322155 98.44795612 -217.36645112 75.88975395 -170.55126953 52.67822266 C-168.47526288 51.6436152 -166.40617018 50.59674825 -164.33984375 49.54296875 C-160.34927013 47.51091786 -156.3386142 45.52316952 -152.3125 43.5625 C-151.44367188 43.1392041 -150.57484375 42.7159082 -149.6796875 42.27978516 C-115.52782356 25.77964244 -79.63095634 11.81797395 -42.3125 4.5625 C-41.32910645 4.36640137 -40.34571289 4.17030273 -39.33251953 3.96826172 C-26.254637 1.43150512 -13.30677469 0.15371823 0 0 Z " fill="#E8F1F2" transform="translate(422.3125,18.4375)"/>
<path d="M0 0 C2.87518122 0.5184753 5.25952738 1.09714879 8 2 C9.23878906 2.39960937 10.47757813 2.79921875 11.75390625 3.2109375 C22.32465725 6.66232862 22.32465725 6.66232862 25 8 C24.54547766 14.06827188 22.60265206 18.21822995 19.5625 23.4375 C18.90121094 24.60188599 18.90121094 24.60188599 18.2265625 25.78979492 C14.72834889 31.8924682 11.04370181 37.87787107 7.22485352 43.78491211 C5.08954485 47.11169593 3.40543665 50.3130869 2 54 C7.29802129 52.91643639 12.5958639 51.83200447 17.89355469 50.74682617 C19.68940628 50.37908431 21.48530342 50.01156479 23.28125 49.64428711 C32.95195737 47.66643318 42.61793777 45.67530299 52.26318359 43.57617188 C60.52583364 41.8366666 68.56435882 41.8933697 77 42 C75.15371554 46.9747109 73.02880981 50.51937583 69 54 C61.81363304 57.09873976 53.64388877 58.17328842 46 59.625 C43.77033968 60.05211851 41.54114523 60.48167863 39.3125 60.9140625 C38.33925781 61.0992041 37.36601563 61.2843457 36.36328125 61.47509766 C33.99707 61.90036428 33.99707 61.90036428 32 63 C33.6029449 64.29318256 35.20740142 65.58449156 36.8125 66.875 C37.70582031 67.59429687 38.59914063 68.31359375 39.51953125 69.0546875 C42.03570953 71.07940706 42.03570953 71.07940706 45 73 C46.6154777 82.01975047 44.51260703 90.1893159 40 98 C36.60925547 102.72802882 32.79613559 107.01356752 28.8984375 111.32421875 C28.27195312 112.02160156 27.64546875 112.71898437 27 113.4375 C26.443125 114.03433594 25.88625 114.63117188 25.3125 115.24609375 C23.87771234 117.16341416 23.41147727 118.659723 23 121 C37.70329772 119.21964245 46.25313455 109.65826375 55.359375 98.76171875 C57.97126459 95.95704684 59.76804748 94.16848762 63.65625 93.63671875 C64.5946875 93.65347656 65.533125 93.67023438 66.5 93.6875 C67.4384375 93.69136719 68.376875 93.69523437 69.34375 93.69921875 C72.05492518 94.00621947 73.71624436 94.5311299 76 96 C77.85098236 99.70196472 77.62439968 104.05899507 76.375 107.94287109 C75.49344847 109.90850653 74.52796272 111.79436874 73.5 113.6875 C73.13543701 114.38681641 72.77087402 115.08613281 72.39526367 115.80664062 C69.60998979 121.07124619 66.50544501 126.10587627 63.33203125 131.14453125 C51.85246504 149.79946609 41.22475084 169.6197696 36 191 C54.40067534 177.70421421 66.41133859 160.87728506 78.00463867 141.57836914 C80.80347447 136.92400702 83.70066761 132.36878597 86.75 127.875 C91.15568019 121.36689407 95.34262422 114.73158053 99.5 108.0625 C100.14485352 107.02843018 100.78970703 105.99436035 101.45410156 104.92895508 C104.29466378 100.36665402 107.12650995 95.79933267 109.9375 91.21875 C123.80700618 68.66601757 123.80700618 68.66601757 132 65 C141.51202943 63.47807529 148.06892626 65.95295308 156 71 C154.71729084 74.43669245 153.24045588 77.42197544 151.25 80.5 C150.63125 81.46164063 150.0125 82.42328125 149.375 83.4140625 C147.55709002 86.18428751 145.68931215 88.91782965 143.8125 91.6484375 C137.69163582 100.5993695 131.90005699 109.56855046 126.875 119.1875 C126.43833008 120.0232959 126.00166016 120.8590918 125.55175781 121.72021484 C121.41465556 129.8405334 117.88744243 138.10723358 115.8125 147 C115.64524414 147.70697021 115.47798828 148.41394043 115.30566406 149.14233398 C113.50380932 157.35048366 113.19595507 165.62292083 113 174 C122.27552374 172.56143497 128.66994052 168.96306543 135 162 C135.52464844 161.45601562 136.04929687 160.91203125 136.58984375 160.3515625 C149.00203718 147.07340209 158.88241381 131.43347404 168.78271484 116.25244141 C172.56066218 110.4964935 176.35429092 105.08675741 181 100 C182.32 100.33 183.64 100.66 185 101 C181.9583622 112.81559297 177.932776 123.33866505 172 134 C171.64921387 134.63679687 171.29842773 135.27359375 170.93701172 135.9296875 C163.72386455 148.88229258 154.82849483 160.10526748 144.8125 171 C144.25473877 171.61101562 143.69697754 172.22203125 143.12231445 172.8515625 C134.43425995 182.10387564 124.27890659 189.03831925 111.25 189.6875 C104.9375376 189.4304656 101.32095807 187.51300065 97 183 C92.04352227 177.52178777 90.70308076 173.50461428 90.5859375 166.171875 C90.55688828 165.04836639 90.55688828 165.04836639 90.5272522 163.90216064 C90.46764284 161.51822164 90.42114646 159.13423386 90.375 156.75 C90.33680299 155.13018769 90.29775025 153.51039532 90.2578125 151.890625 C90.16195687 147.92724594 90.07785754 143.96377181 90 140 C89.43249023 141.09957031 88.86498047 142.19914063 88.28027344 143.33203125 C61.21691741 195.63738484 61.21691741 195.63738484 43.17578125 201.37890625 C39.29848109 202.13719743 35.56947196 202.38716608 31.625 202.4375 C30.60780884 202.45296875 30.60780884 202.45296875 29.57006836 202.46875 C25.23292634 202.39129143 22.39185686 201.73181985 19 199 C14.40512689 192.18010237 13.95397375 183.93313713 15 176 C18.76437503 161.82721474 27.21262257 148.73100182 35.40673828 136.72167969 C37.78679613 133.17575809 39.60048931 130.3691169 40 126 C39.33613281 126.34933594 38.67226563 126.69867188 37.98828125 127.05859375 C36.66376953 127.74115234 36.66376953 127.74115234 35.3125 128.4375 C34.44238281 128.88996094 33.57226562 129.34242188 32.67578125 129.80859375 C28.4721372 131.68028928 24.57128377 132.15178685 20 132.1875 C19.175 132.20167969 18.35 132.21585938 17.5 132.23046875 C14.69638542 131.97201053 12.55472343 131.15418755 10 130 C9.48953125 131.17691406 8.9790625 132.35382813 8.453125 133.56640625 C-2.70334752 158.99448721 -15.18852512 183.35112525 -34 204 C-34.69738281 204.76828125 -35.39476562 205.5365625 -36.11328125 206.328125 C-43.53829368 214.12513204 -51.97276499 221.09059553 -63.0793457 221.48217773 C-75.22814211 221.57913435 -75.22814211 221.57913435 -80.45703125 216.99609375 C-86.22866519 209.52949896 -86.63773984 203.91581221 -86.75 194.5625 C-86.77964844 193.35400391 -86.80929687 192.14550781 -86.83984375 190.90039062 C-86.91020413 187.93352792 -86.96307021 184.96743576 -87 182 C-87.69037354 183.05912598 -88.38074707 184.11825195 -89.09204102 185.20947266 C-91.67371161 189.16386853 -94.26945132 193.1088621 -96.86938477 197.05126953 C-97.98941343 198.75384231 -99.10568996 200.45888991 -100.21801758 202.16650391 C-101.82416294 204.63074663 -103.44391285 207.08556182 -105.06640625 209.5390625 C-105.79966881 210.67379501 -105.79966881 210.67379501 -106.54774475 211.83145142 C-110.9806653 218.48397141 -116.83259166 225.25396394 -125 227 C-132.90981994 227.764553 -140.48865554 228.08442514 -147 223 C-152.31667692 217.41067298 -152.32402688 212.49725869 -152.30078125 205.06640625 C-152.0234491 199.26518655 -150.43740204 193.76861681 -148.875 188.203125 C-147.91216148 185.23186281 -147.91216148 185.23186281 -148 183 C-148.63164063 183.99515625 -149.26328125 184.9903125 -149.9140625 186.015625 C-159.97948241 201.77509845 -170.58209167 217.18624824 -182 232 C-182.45375 232.63164062 -182.9075 233.26328125 -183.375 233.9140625 C-186.5166583 238.10982984 -189.99519794 240.57463237 -195 242 C-200.83188584 242.70645836 -206.78317221 243.09115777 -212.125 240.3125 C-215.73291185 237.41048395 -217.6450426 234.90136095 -218.50390625 230.30078125 C-218.80077578 215.16043521 -211.78899147 201.18468547 -206.23730469 187.39355469 C-204.05456672 181.92301056 -202.28356095 176.57391329 -200.8125 170.875 C-195.56859944 153.31065488 -180.53127409 134.3192482 -167 122 C-160.50042765 120.91673794 -154.69678084 122.75664517 -149 126 C-147.28621472 127.61817662 -145.6085449 129.27717127 -144 131 C-147.41564268 138.44202942 -151.00431401 145.34974187 -155.875 151.9375 C-160.63935117 158.38911288 -164.8393109 165.0394954 -168.83935547 171.98876953 C-169.63114601 173.36082895 -170.4299655 174.72885017 -171.23486328 176.09326172 C-179.21783048 189.63574052 -185.92173084 203.7676647 -190 219 C-187.15515966 218.72843114 -187.15515966 218.72843114 -184 217 C-182.32173263 214.68110369 -180.99238761 212.25972549 -179.609375 209.75390625 C-178.04555585 207.07795358 -176.35216064 204.81907986 -174.375 202.4375 C-160.64880797 185.68998296 -149.39459093 166.93463782 -137.8125 148.6875 C-132.32498981 140.04361732 -126.77671518 131.45372954 -121 123 C-120.28070312 121.9378125 -119.56140625 120.875625 -118.8203125 119.78125 C-112.18698225 110.26930473 -112.18698225 110.26930473 -107 108 C-100.2936668 106.86333336 -96.17320505 109.06881727 -90.3203125 112.296875 C-87.82103294 114.13136302 -87.00992751 115.10989179 -86 118 C-86.5480957 119.97607422 -86.5480957 119.97607422 -87.67578125 122.0546875 C-88.08683105 122.82651367 -88.49788086 123.59833984 -88.92138672 124.39355469 C-89.3804541 125.21243164 -89.83952148 126.03130859 -90.3125 126.875 C-90.77672363 127.7299707 -91.24094727 128.58494141 -91.71923828 129.46582031 C-94.41626787 134.36733849 -97.28188476 139.09038993 -100.375 143.75 C-114.52093048 165.2075926 -123.10375323 186.70587373 -127 212 C-119.91138288 209.52814819 -115.9974443 206.52798699 -111.6875 200.4375 C-110.86149292 199.31420288 -110.86149292 199.31420288 -110.01879883 198.16821289 C-105.10177862 191.37978421 -100.65082203 184.31126163 -96.25390625 177.1796875 C-91.91643452 170.18904033 -87.26286816 163.40366223 -82.60620117 156.62280273 C-75.45011106 146.05193977 -70.34965192 134.72832593 -65.25 123.0625 C-58.05827539 106.76065852 -50.71478819 90.55387693 -42 75 C-42.99 75.495 -42.99 75.495 -44 76 C-45.4465242 76.15067214 -46.8987934 76.24861036 -48.3515625 76.31640625 C-49.20234375 76.35830078 -50.053125 76.40019531 -50.9296875 76.44335938 C-51.81914063 76.48267578 -52.70859375 76.52199219 -53.625 76.5625 C-54.97078125 76.62727539 -54.97078125 76.62727539 -56.34375 76.69335938 C-58.56234283 76.79956861 -60.7810488 76.90161194 -63 77 C-62.91782628 75.54964328 -62.8132671 74.10054267 -62.69921875 72.65234375 C-62.64338623 71.84531006 -62.58755371 71.03827637 -62.5300293 70.20678711 C-62 68 -62 68 -60.49804688 66.54492188 C-56.27788669 64.08519931 -51.78285671 63.61134259 -47 63 C-38.91373579 61.98540349 -38.91373579 61.98540349 -32 58 C-27.20629838 51.41441621 -24.0134203 43.90733632 -20.875 36.4375 C-20.03935339 34.47774052 -19.20341972 32.51810342 -18.3671875 30.55859375 C-17.97208984 29.62313721 -17.57699219 28.68768066 -17.16992188 27.72387695 C-15.75269168 24.42420306 -14.25433897 21.16507137 -12.72802734 17.91455078 C-11.70792892 15.23191772 -11.70984546 12.82900677 -12 10 C-12.99 9.67 -13.98 9.34 -15 9 C-15.36468172 3.52977413 -15.36468172 3.52977413 -13.84375 1.3203125 C-9.96521416 -1.45711359 -4.55590364 -0.32793137 0 0 Z " fill="#E5EEEF" transform="translate(742,49)"/>
<path d="M0 0 C-10.65475906 49.99540792 -35.72674583 104.95303181 -73 141 C-76.11629149 142.03876383 -78.3594429 142.13361625 -81.625 142.125 C-82.60726562 142.12757813 -83.58953125 142.13015625 -84.6015625 142.1328125 C-87 142 -87 142 -88 141 C-89.75465714 116.35960051 -80.80772785 96.75017201 -70.81237793 74.78619385 C-70.05036318 73.11073467 -69.29307932 71.43312612 -68.53613281 69.75537109 C-60.29102266 51.57798412 -50.65241381 34.33247707 -39.25 17.9375 C-38.75580566 17.2055542 -38.26161133 16.4736084 -37.75244141 15.71948242 C-31.9713186 7.68191808 -24.14822829 4.61494853 -14.8125 2.1875 C-13.66104492 1.86362305 -13.66104492 1.86362305 -12.48632812 1.53320312 C-8.22159725 0.38205469 -4.45765324 -0.24883232 0 0 Z " fill="#040404" transform="translate(766,112)"/>
<path d="M0 0 C-2.10006523 8.0184309 -6.6655038 12.09034107 -13.4375 16.4375 C-20.81208878 21.15557783 -20.81208878 21.15557783 -26 28 C-26.59433604 31.09976987 -26.80649036 33.93033513 -26 37 C-25.01 37.66 -24.02 38.32 -23 39 C-22.8125 41.625 -22.8125 41.625 -23 44 C-35.53773072 45.0320693 -35.53773072 45.0320693 -40.5625 41.4375 C-45.57788502 36.88866243 -48.16245485 32.77929777 -48.5625 25.9375 C-48.67720442 21.7744044 -47.29817526 19.45844441 -44.5144043 16.37231445 C-42.02691745 14.11821747 -39.20089065 12.85323658 -36.125 11.625 C-35.45243164 11.34390381 -34.77986328 11.06280762 -34.08691406 10.77319336 C-27.71749058 8.17042693 -21.23640785 5.85452051 -14.75 3.5625 C-13.74984863 3.20816895 -12.74969727 2.85383789 -11.71923828 2.48876953 C-10.30360596 2.00126221 -10.30360596 2.00126221 -8.859375 1.50390625 C-7.59818848 1.06800171 -7.59818848 1.06800171 -6.31152344 0.62329102 C-4 0 -4 0 0 0 Z " fill="#DFE7E8" transform="translate(942,51)"/>
<path d="M0 0 C-0.53744069 4.43388565 -1.70221739 8.85481402 -5 12 C-8.34392181 12.8976619 -11.54842935 13.04610877 -15 13 C-5.61290323 0 -5.61290323 0 0 0 Z " fill="#B8BFBF" transform="translate(505,253)"/>
</svg>
