<?xml version="1.0" encoding="UTF-8"?>
<svg version="1.1" xmlns="http://www.w3.org/2000/svg" width="630" height="630">
<path d="M0 0 C207.9 0 415.8 0 630 0 C630 207.9 630 415.8 630 630 C422.1 630 214.2 630 0 630 C0 422.1 0 214.2 0 0 Z " fill="#000000" transform="translate(0,0)"/>
<path d="M0 0 C0.79075928 -0.01514648 1.58151855 -0.03029297 2.39624023 -0.04589844 C8.23561813 0.06148668 13.08112173 1.59930287 18.125 4.5625 C21.88645277 8.51202541 23.29202785 11.17237413 23.4375 16.5625 C23.49357422 17.8928125 23.49357422 17.8928125 23.55078125 19.25 C22.48157614 27.56821956 18.11292907 34.75728547 13.625 41.6875 C13.10309082 42.50371826 12.58118164 43.31993652 12.04345703 44.16088867 C7.65165451 50.93942595 2.9045088 57.40083373 -2.01171875 63.8046875 C-4.70164052 67.30921997 -7.27034096 70.88748532 -9.8125 74.5 C-13.47370862 79.68935884 -17.2959258 84.7316135 -21.1875 89.75 C-26.50861457 96.62711121 -31.48575317 103.69228909 -36.34863281 110.89941406 C-39.1221275 115.0098581 -41.9425191 119.04588266 -44.9375 123 C-55.06896289 135.51887442 -55.06896289 135.51887442 -60.875 149.5625 C-59.36823645 147.73435367 -57.86163977 145.90607015 -56.35522461 144.07763672 C-55.0658763 142.51269124 -53.77632211 140.94791535 -52.48657227 139.38330078 C-49.07909056 135.24750564 -45.6862043 131.10092909 -42.3125 126.9375 C-34.04259202 116.82642512 -25.40628364 107.02732952 -16.53515625 97.44140625 C-14.78127053 95.54329498 -13.0387517 93.63460805 -11.30859375 91.71484375 C-1.04820336 80.35348748 9.48489071 69.02391739 21.5625 59.5703125 C23.32468796 58.18957376 25.05275608 56.76451932 26.75 55.3046875 C35.27487715 47.99410971 46.13470844 39.7462469 57.5 38.0625 C62.36598685 38.7336706 64.86283993 41.0054554 68.125 44.5625 C70.15038534 48.61327067 69.37412311 52.75144506 68.0859375 56.9453125 C67.57273674 58.19914174 67.04273991 59.44617161 66.5 60.6875 C66.19715088 61.40139893 65.89430176 62.11529785 65.58227539 62.85083008 C61.62410161 71.99153999 57.18627592 80.91656427 52.82801819 89.87107849 C40.69210443 114.57880822 40.69210443 114.57880822 29.875 139.875 C29.61146729 140.54297607 29.34793457 141.21095215 29.07641602 141.89916992 C27.26725504 146.69711165 26.13098266 151.54916093 25.125 156.5625 C30.88777569 153.68472744 34.33602885 150.45333488 38.3125 145.4375 C39.32047042 144.17977833 40.33460589 142.92696742 41.35546875 141.6796875 C41.79270264 141.12909668 42.22993652 140.57850586 42.68041992 140.01123047 C44.34067572 138.34620463 45.98491072 137.50570653 48.125 136.5625 C46.76569926 139.56985073 45.3846944 142.56676693 44 145.5625 C43.62101563 146.40167969 43.24203125 147.24085938 42.8515625 148.10546875 C36.0129239 162.80854173 36.0129239 162.80854173 29.125 165.5625 C21.90506775 165.32781769 14.18916799 161.62666799 9.125 156.5625 C5.90510735 132.48818633 22.19062778 105.61995366 33.125 85.0625 C42.87369229 67.62054499 42.87369229 67.62054499 48.125 48.5625 C42.42479522 51.19234417 37.90773096 54.03435292 33.2421875 58.2109375 C32.60739471 58.77066254 31.97260193 59.33038757 31.318573 59.90707397 C23.79222062 66.62701924 16.64678822 73.74020016 9.53417969 80.89257812 C7.2385677 83.19898607 4.93234863 85.49440233 2.625 87.7890625 C-5.00324894 95.41043966 -12.24098319 103.0512135 -18.875 111.5625 C-19.82109419 112.68804689 -20.774397 113.80761873 -21.73828125 114.91796875 C-27.80923777 121.9378148 -33.44915286 129.19692405 -38.96875 136.65625 C-41.1749896 139.63671088 -43.42690422 142.57520714 -45.71240234 145.49511719 C-53.95270962 156.03771837 -61.35656086 167.14764514 -68.625 178.375 C-69.08463135 179.08438721 -69.5442627 179.79377441 -70.01782227 180.5246582 C-72.03958007 183.65990085 -74.03527941 186.80309689 -75.9453125 190.0078125 C-76.54085937 190.99523437 -77.13640625 191.98265625 -77.75 193 C-78.24242187 193.84433594 -78.73484375 194.68867188 -79.2421875 195.55859375 C-81.8746139 198.78929888 -84.78837861 199.42378238 -88.8125 199.9375 C-92.76905216 199.45302423 -94.81005417 198.07018296 -97.875 195.5625 C-100.27070084 192.29563522 -100.24616728 189.53929227 -99.875 185.5625 C-98.59115108 181.97780765 -96.93376923 178.59941643 -95.25 175.1875 C-94.75927002 174.17945313 -94.26854004 173.17140625 -93.76293945 172.1328125 C-88.04936368 160.60039914 -81.51529697 149.5783269 -74.875 138.5625 C-73.72739819 136.63569437 -72.5802575 134.70861402 -71.43359375 132.78125 C-60.77027488 114.95994483 -49.30640978 97.68829796 -37.24169922 80.78710938 C-31.74285287 73.04288523 -26.60052342 65.07112059 -21.48193359 57.07226562 C-19.90668657 54.61198921 -18.32269674 52.15750333 -16.73828125 49.703125 C-11.71547526 41.88544125 -6.82531107 33.99029634 -2.1875 25.9375 C-1.76509033 25.22770996 -1.34268066 24.51791992 -0.9074707 23.78662109 C1.86458092 18.86534674 3.22313231 14.26045451 3.125 8.5625 C1.36334037 6.80084037 -0.97513676 7.26472332 -3.375 7.1875 C-31.59689063 7.49425968 -63.38938876 25.92549075 -87.86572266 38.54248047 C-90.04781965 39.65023274 -92.24604618 40.71996145 -94.44921875 41.78515625 C-142.55501806 63.33709342 -142.55501806 63.33709342 -177.875 99.5625 C-177.875 100.8825 -177.875 102.2025 -177.875 103.5625 C-175.565 104.2225 -173.255 104.8825 -170.875 105.5625 C-171.535 106.5525 -172.195 107.5425 -172.875 108.5625 C-180.19571935 109.60831705 -186.54942761 106.46899967 -192.375 102.25 C-194.875 99.5625 -194.875 99.5625 -196.0625 96.1875 C-195.75690383 90.27930729 -192.83420706 87.40081225 -188.72265625 83.54296875 C-167.17596307 65.1170601 -141.17914221 51.90456653 -116.03369141 39.16748047 C-113.49681775 37.87845532 -110.9696097 36.57469097 -108.44921875 35.25390625 C-76.48489942 18.62124905 -36.54885827 0.58559885 0 0 Z " fill="#EBF4F5" transform="translate(251.875,158.4375)"/>
<path d="M0 0 C2.92722583 0.97689667 5.83835703 1.98409853 8.73828125 3.0390625 C8.08937861 6.37852543 6.82871375 8.8109534 5.05078125 11.69921875 C4.51710938 12.57513672 3.9834375 13.45105469 3.43359375 14.35351562 C2.87414062 15.26037109 2.3146875 16.16722656 1.73828125 17.1015625 C0.63146668 18.903324 -0.47281687 20.70664344 -1.57421875 22.51171875 C-2.06535156 23.30843994 -2.55648437 24.10516113 -3.0625 24.92602539 C-4.3938076 27.11327739 -4.3938076 27.11327739 -5.26171875 30.0390625 C-4.59229248 29.89807129 -3.92286621 29.75708008 -3.2331543 29.61181641 C-0.13883076 28.96102508 2.95597069 28.31253369 6.05078125 27.6640625 C7.10330078 27.44234375 8.15582031 27.220625 9.24023438 26.9921875 C14.38807059 25.91510177 19.53962727 24.86215569 24.70703125 23.8828125 C25.55330078 23.72232422 26.39957031 23.56183594 27.27148438 23.39648438 C31.12482668 22.83816162 34.85128666 22.91162005 38.73828125 23.0390625 C37.32038421 26.46564702 35.99231146 28.22214342 32.73828125 30.0390625 C29.56573316 30.94400903 26.35470144 31.55931993 23.11328125 32.1640625 C21.39148452 32.49772429 19.67010683 32.83355799 17.94921875 33.171875 C17.18915527 33.31512207 16.4290918 33.45836914 15.64599609 33.60595703 C13.66647365 33.97576031 13.66647365 33.97576031 11.73828125 35.0390625 C12.68703125 35.6578125 13.63578125 36.2765625 14.61328125 36.9140625 C17.73828125 39.0390625 17.73828125 39.0390625 19.73828125 41.0390625 C20.39926118 47.42853511 19.37954836 51.74441164 15.73828125 57.0390625 C12.86174914 60.49486184 9.84998581 63.79437911 6.73828125 67.0390625 C7.06828125 67.6990625 7.39828125 68.3590625 7.73828125 69.0390625 C13.74605627 68.7460003 16.69089913 66.13900803 20.73828125 62.0390625 C22.62122699 59.95028868 24.45872749 57.8371534 26.2578125 55.67578125 C28.3900778 53.31847475 29.47590832 53.06139211 32.67578125 52.7890625 C35.73828125 53.0390625 35.73828125 53.0390625 37.67578125 54.1640625 C39.33691375 57.09547279 38.5716942 58.79391474 37.73828125 62.0390625 C36.2296921 65.10688709 34.45757149 67.99851344 32.67578125 70.9140625 C28.98603158 77.11101152 25.44088366 83.32524998 22.23828125 89.7890625 C21.9249585 90.41925293 21.61163574 91.04944336 21.28881836 91.69873047 C16.95083999 100.51957835 16.95083999 100.51957835 14.73828125 110.0390625 C26.0584739 103.06295029 33.06330248 90.96106282 40.11328125 79.9765625 C40.94311367 78.69781844 41.77360701 77.41950307 42.60473633 76.14160156 C46.78625361 69.69801224 50.89276773 63.21197708 54.94042969 56.68334961 C65.95310941 38.93164842 65.95310941 38.93164842 71.73828125 36.0390625 C77.44819681 35.49003216 80.23635888 36.52536699 84.73828125 40.0390625 C83.2491613 43.42809412 81.20112916 46.27441534 79.05688477 49.26635742 C68.39807753 64.20094527 58.37072586 81.08322528 59.73828125 100.0390625 C67.09765441 99.35763906 70.26118736 96.07720726 74.9609375 90.56640625 C82.97422938 80.55051909 90.33079019 69.98679391 97.15234375 59.12890625 C98.73828125 57.0390625 98.73828125 57.0390625 101.73828125 56.0390625 C98.99621219 72.70011258 83.92350853 93.96796609 70.9609375 104.48046875 C65.88441209 108.04272496 60.80174026 108.97031047 54.73828125 108.0390625 C50.88085862 106.00455689 48.35428465 103.07119934 46.73828125 99.0390625 C46.51123047 96.74902344 46.51123047 96.74902344 46.54296875 94.2734375 C46.55263672 92.93925781 46.55263672 92.93925781 46.5625 91.578125 C46.58763672 90.19753906 46.58763672 90.19753906 46.61328125 88.7890625 C46.62230469 87.85320312 46.63132812 86.91734375 46.640625 85.953125 C46.66414489 83.64817593 46.69701272 81.3437509 46.73828125 79.0390625 C46.12082031 80.12703125 45.50335938 81.215 44.8671875 82.3359375 C27.61413783 112.41377697 27.61413783 112.41377697 16.73828125 116.0390625 C12.34488321 116.53261182 8.90304017 116.88351272 5.23828125 114.2265625 C2.5700246 110.33535488 2.17961328 106.6184469 2.73828125 102.0390625 C4.64959964 93.49693954 9.38941579 86.34368214 14.02856445 79.05737305 C14.50511475 78.3075415 14.98166504 77.55770996 15.47265625 76.78515625 C15.90803711 76.11154053 16.34341797 75.4379248 16.79199219 74.74389648 C17.90005236 73.07259103 17.90005236 73.07259103 17.73828125 71.0390625 C17.24199219 71.3278125 16.74570312 71.6165625 16.234375 71.9140625 C11.56641348 74.46505476 8.18805353 75.68021218 2.73828125 75.0390625 C1.74828125 74.3790625 0.75828125 73.7190625 -0.26171875 73.0390625 C-0.54080078 73.77012207 -0.81988281 74.50118164 -1.10742188 75.25439453 C-7.97751063 91.82804772 -21.04084318 117.02746496 -37.26171875 126.0390625 C-41.01134826 127.53891431 -45.28648126 127.61598563 -49.26171875 127.0390625 C-52.80701713 124.88105479 -54.83390603 122.91455416 -56.26171875 119.0390625 C-56.40169102 116.25081492 -56.45061005 113.57079134 -56.38671875 110.7890625 C-56.37769531 110.04398437 -56.36867188 109.29890625 -56.359375 108.53125 C-56.33590233 106.70038191 -56.300034 104.86968012 -56.26171875 103.0390625 C-56.59905029 103.55291504 -56.93638184 104.06676758 -57.28393555 104.59619141 C-58.8352708 106.95464566 -60.39219479 109.30936038 -61.94921875 111.6640625 C-62.47966797 112.47230469 -63.01011719 113.28054688 -63.55664062 114.11328125 C-72.61157011 127.77900304 -72.61157011 127.77900304 -78.26171875 130.0390625 C-83.03389118 130.75969257 -87.6932359 130.95854802 -91.88671875 128.2890625 C-94.52946537 125.62379247 -94.73261083 123.15107327 -94.88671875 119.4765625 C-94.57691704 112.91365795 -92.67239617 107.10880387 -90.26171875 101.0390625 C-90.79539062 101.88726562 -91.3290625 102.73546875 -91.87890625 103.609375 C-95.94348307 110.02557347 -100.10093825 116.35458159 -104.51171875 122.5390625 C-105.11089111 123.38235107 -105.11089111 123.38235107 -105.72216797 124.24267578 C-115.67368055 138.07268438 -115.67368055 138.07268438 -122.24609375 139.45703125 C-125.97927735 139.71666996 -128.14890943 139.10812943 -131.32421875 137.1640625 C-133.70036648 133.33156615 -133.7215627 131.49946822 -133.05078125 127.1328125 C-131.15995723 119.71928467 -128.21273385 112.57713792 -125.1953125 105.55859375 C-124.12893971 102.85435133 -124.12893971 102.85435133 -123.39453125 99.15625 C-122.39324907 95.00919198 -120.52017706 91.67398081 -118.13671875 88.1640625 C-117.74218506 87.5669043 -117.34765137 86.96974609 -116.94116211 86.35449219 C-112.8484611 80.25018 -108.46728433 74.24462808 -103.26171875 69.0390625 C-97.66565173 69.25429585 -94.58764869 70.76823742 -90.26171875 74.0390625 C-91.90876199 79.04922996 -94.8505984 82.99905322 -97.82421875 87.2890625 C-106.06050416 99.4323675 -113.33745415 111.79645183 -117.26171875 126.0390625 C-115.31172746 125.84435139 -115.31172746 125.84435139 -113.26171875 125.0390625 C-112.20946001 123.25966891 -112.20946001 123.25966891 -111.26171875 121.0390625 C-109.85111134 119.18495784 -108.4089389 117.35475368 -106.94921875 115.5390625 C-100.07952863 106.80345211 -94.23156322 97.39954679 -88.26171875 88.0390625 C-86.75321479 85.68155129 -85.24269949 83.32538988 -83.72827148 80.97167969 C-82.8287408 79.57334822 -81.93214241 78.17312345 -81.03930664 76.77050781 C-78.84094589 73.34747566 -76.56824507 69.98439209 -74.1953125 66.6796875 C-73.7305249 66.03032227 -73.2657373 65.38095703 -72.78686523 64.71191406 C-71.07112495 62.83001036 -69.62608616 61.95907725 -67.26171875 61.0390625 C-62.75506723 61.27625469 -59.85387761 63.44936658 -56.26171875 66.0390625 C-57.68970301 69.97140107 -59.56876802 73.27147066 -61.82421875 76.7890625 C-70.5480502 90.69444408 -79.5345339 105.27745182 -80.26171875 122.0390625 C-75.27032948 121.33697698 -73.53711321 118.12707471 -70.60546875 114.3203125 C-67.33498106 109.83185009 -64.34993786 105.14935965 -61.38256836 100.45703125 C-58.95674303 96.62264763 -56.44443591 92.91928318 -53.7578125 89.26171875 C-49.92955445 83.83118855 -47.41661113 78.09595581 -44.88671875 71.9765625 C-40.50867673 61.68934742 -35.70086797 51.80267109 -30.26171875 42.0390625 C-34.55171875 42.3690625 -38.84171875 42.6990625 -43.26171875 43.0390625 C-42.93171875 41.3890625 -42.60171875 39.7390625 -42.26171875 38.0390625 C-38.73975349 35.69108566 -36.74265632 35.80161453 -32.57421875 35.4140625 C-27.68503669 34.48427359 -27.68503669 34.48427359 -23.89111328 31.46435547 C-21.46006041 27.58046624 -19.75143372 23.40618598 -18.11328125 19.13916016 C-16.94689173 16.26264563 -15.53302831 13.53647735 -14.09130859 10.78979492 C-13.04883358 8.58979837 -12.56288843 6.44841994 -12.26171875 4.0390625 C-13.25171875 3.7090625 -14.24171875 3.3790625 -15.26171875 3.0390625 C-14.88671875 1.1015625 -14.88671875 1.1015625 -14.26171875 -0.9609375 C-9.96790525 -3.10784425 -4.40585403 -1.29801209 0 0 Z " fill="#E9F2F3" transform="translate(444.26171875,177.9609375)"/>
<path d="M0 0 C-6.25867691 27.6854414 -18.193711 51.84430598 -36 74 C-36.64195312 74.84433594 -37.28390625 75.68867188 -37.9453125 76.55859375 C-42.53510076 82.33184759 -42.53510076 82.33184759 -46.875 83.0625 C-50 83 -50 83 -51 82 C-51.91498223 72.74353436 -50.36173056 65.50096012 -46.6875 57.0625 C-46.24035645 55.99491455 -45.79321289 54.9273291 -45.33251953 53.82739258 C-38.86155371 38.62927032 -31.95171258 23.27633816 -22 10 C-21.37867188 9.11957031 -20.75734375 8.23914063 -20.1171875 7.33203125 C-17.6994733 4.66897705 -15.95443977 3.86026045 -12.5625 2.75 C-11.17224609 2.27820313 -11.17224609 2.27820313 -9.75390625 1.796875 C-6.51553223 0.85981358 -3.3844147 0 0 0 Z " fill="#020202" transform="translate(452,213)"/>
<path d="M0 0 C48.18 0 96.36 0 146 0 C146 0.99 146 1.98 146 3 C97.82 3 49.64 3 0 3 C0 2.01 0 1.02 0 0 Z " fill="#E9F2F3" transform="translate(243,418)"/>
<path d="M0 0 C-1.37534883 4.67944129 -3.43455018 6.38855078 -7.4375 9.0625 C-10.93202158 11.41234474 -13.79930987 13.35926096 -16 17 C-16.25124826 19.66761764 -16.25124826 19.66761764 -16 22 C-15.34 22.33 -14.68 22.66 -14 23 C-14 23.99 -14 24.98 -14 26 C-19.98654709 26.59865471 -19.98654709 26.59865471 -22.765625 24.95703125 C-26.39061285 21.9567379 -27.85617496 20.29442533 -28.375 15.625 C-28 12 -28 12 -26.01171875 9.96875 C-22.30482873 7.54556898 -18.62855975 6.23484599 -14.4375 4.875 C-12.93541738 4.37473337 -11.43408759 3.87219952 -9.93359375 3.3671875 C-9.24120605 3.13483398 -8.54881836 2.90248047 -7.83544922 2.66308594 C-0.46391753 0 -0.46391753 0 0 0 Z " fill="#E6EEEF" transform="translate(555,177)"/>
<path d="M0 0 C3.62129338 0.86767624 4.97000055 2.40608971 6.97265625 5.47265625 C7.66928927 8.63034525 7.67485302 11.31562526 6.97265625 14.47265625 C4.91015625 17.53515625 4.91015625 17.53515625 1.97265625 19.47265625 C-2.40398485 20.2541993 -4.24506737 19.98862578 -7.96484375 17.53515625 C-10.73879307 13.41626181 -10.94419233 10.3013921 -10.02734375 5.47265625 C-7.72107545 0.76402513 -5.29587976 -0.38605479 0 0 Z " fill="#080808" transform="translate(299.02734375,448.52734375)"/>
<path d="M0 0 C9.625 -0.25 9.625 -0.25 13 2 C13.45892595 5.51843231 13.41140736 7.34860502 11.5 10.375 C11.005 10.91125 10.51 11.4475 10 12 C11.32 14.31 12.64 16.62 14 19 C12.1875 18.8125 12.1875 18.8125 10 18 C9.525625 17.175 9.05125 16.35 8.5625 15.5 C7.22232165 12.74538088 7.22232165 12.74538088 4.3125 12.1875 C3.549375 12.125625 2.78625 12.06375 2 12 C2 14.31 2 16.62 2 19 C1.34 19 0.68 19 0 19 C0 12.73 0 6.46 0 0 Z " fill="#DAE2E3" transform="translate(333,449)"/>
<path d="M0 0 C8.3984375 -0.1953125 8.3984375 -0.1953125 11 0 C13 2 13 2 13.25 5.375 C13.02515633 8.63523324 12.7239511 10.30632641 11 13 C11.495 13.61875 11.99 14.2375 12.5 14.875 C14 17 14 17 14 19 C13.01 19 12.02 19 11 19 C10.443125 17.865625 9.88625 16.73125 9.3125 15.5625 C7.5777124 12.44531169 7.5777124 12.44531169 4.25 11.0625 C3.13625 11.0315625 3.13625 11.0315625 2 11 C2 13.64 2 16.28 2 19 C1.34 19 0.68 19 0 19 C0 12.73 0 6.46 0 0 Z " fill="#DAE2E3" transform="translate(183,449)"/>
<path d="M0 0 C0.99 0 1.98 0 3 0 C4.17094005 2.7899439 5.33690927 5.58178597 6.5 8.375 C6.83386719 9.1690625 7.16773438 9.963125 7.51171875 10.78125 C7.82753906 11.54179687 8.14335937 12.30234375 8.46875 13.0859375 C8.76201172 13.7876709 9.05527344 14.4894043 9.35742188 15.21240234 C10 17 10 17 10 19 C9.01 18.67 8.02 18.34 7 18 C6.67 16.35 6.34 14.7 6 13 C3.36 13.33 0.72 13.66 -2 14 C-2.66 15.65 -3.32 17.3 -4 19 C-4.99 19 -5.98 19 -7 19 C-4.94235079 12.54646385 -2.57616518 6.2638737 0 0 Z " fill="#D3DBDC" transform="translate(208,449)"/>
<path d="M0 0 C0.99 0 1.98 0 3 0 C4.17094005 2.7899439 5.33690927 5.58178597 6.5 8.375 C6.83386719 9.1690625 7.16773438 9.963125 7.51171875 10.78125 C7.82753906 11.54179687 8.14335937 12.30234375 8.46875 13.0859375 C8.76201172 13.7876709 9.05527344 14.4894043 9.35742188 15.21240234 C10 17 10 17 10 19 C9.01 18.67 8.02 18.34 7 18 C6.67 16.35 6.34 14.7 6 13 C3.03 13 0.06 13 -3 13 C-3.33 14.65 -3.66 16.3 -4 18 C-4.99 18.33 -5.98 18.66 -7 19 C-4.94235079 12.54646385 -2.57616518 6.2638737 0 0 Z " fill="#CCD4D5" transform="translate(407,449)"/>
<path d="M0 0 C3.62129338 0.86767624 4.97000055 2.40608971 6.97265625 5.47265625 C7.66928927 8.63034525 7.67485302 11.31562526 6.97265625 14.47265625 C4.91015625 17.53515625 4.91015625 17.53515625 1.97265625 19.47265625 C-2.40398485 20.2541993 -4.24506737 19.98862578 -7.96484375 17.53515625 C-10.73879307 13.41626181 -10.94419233 10.3013921 -10.02734375 5.47265625 C-7.72107545 0.76402513 -5.29587976 -0.38605479 0 0 Z M-6.33984375 4.03515625 C-8.66960576 7.40036804 -8.60023957 9.46238548 -8.02734375 13.47265625 C-6.63049369 16.11964345 -6.63049369 16.11964345 -4.02734375 17.47265625 C0.323223 17.4699794 0.323223 17.4699794 3.97265625 15.47265625 C4.12357538 13.66452901 4.19434633 11.84935008 4.22265625 10.03515625 C4.2484375 9.04644531 4.27421875 8.05773437 4.30078125 7.0390625 C4.1925 6.19214844 4.08421875 5.34523438 3.97265625 4.47265625 C0.02609167 1.8416132 -2.30878736 1.3114695 -6.33984375 4.03515625 Z " fill="#D5DDDE" transform="translate(299.02734375,448.52734375)"/>
<path d="M0 0 C3.96 0 7.92 0 12 0 C12 0.66 12 1.32 12 2 C9.03 2 6.06 2 3 2 C3 3.98 3 5.96 3 8 C5.64 8 8.28 8 11 8 C11 8.99 11 9.98 11 11 C8.36 11 5.72 11 3 11 C3 12.98 3 14.96 3 17 C5.97 17 8.94 17 12 17 C12 17.66 12 18.32 12 19 C8.04 19 4.08 19 0 19 C0 12.73 0 6.46 0 0 Z " fill="#ABB1B2" transform="translate(383,449)"/>
<path d="M0 0 C0.99 0 1.98 0 3 0 C3.33 2.64 3.66 5.28 4 8 C6.31 5.36 8.62 2.72 11 0 C11.99 0.33 12.98 0.66 14 1 C13.55527344 1.45890625 13.11054688 1.9178125 12.65234375 2.390625 C12.08644531 3.00421875 11.52054688 3.6178125 10.9375 4.25 C10.36902344 4.85328125 9.80054688 5.4565625 9.21484375 6.078125 C7.7865906 7.914631 7.7865906 7.914631 8.15625 10.0703125 C9.43366036 12.9917973 11.7389125 14.7968891 14 17 C14 17.66 14 18.32 14 19 C11 19 11 19 9.4296875 17.46875 C8.91664063 16.8190625 8.40359375 16.169375 7.875 15.5 C6.93354632 14.31967002 5.97918433 13.14922232 5 12 C4.67 12 4.34 12 4 12 C3.67 14.31 3.34 16.62 3 19 C2.01 19 1.02 19 0 19 C0 12.73 0 6.46 0 0 Z " fill="#ACB3B4" transform="translate(241,449)"/>
<path d="M0 0 C0.66 0 1.32 0 2 0 C2 2.64 2 5.28 2 8 C5.3 8 8.6 8 12 8 C12 5.36 12 2.72 12 0 C12.66 0 13.32 0 14 0 C14 6.27 14 12.54 14 19 C13.34 19 12.68 19 12 19 C12 16.36 12 13.72 12 11 C8.7 11 5.4 11 2 11 C2 13.64 2 16.28 2 19 C1.34 19 0.68 19 0 19 C0 12.73 0 6.46 0 0 Z " fill="#C4CBCC" transform="translate(455,449)"/>
<path d="M0 0 C0.66 0 1.32 0 2 0 C2 2.64 2 5.28 2 8 C5.3 8 8.6 8 12 8 C12 5.36 12 2.72 12 0 C12.66 0 13.32 0 14 0 C14 6.27 14 12.54 14 19 C13.34 19 12.68 19 12 19 C12 16.36 12 13.72 12 11 C8.7 11 5.4 11 2 11 C2 13.64 2 16.28 2 19 C1.34 19 0.68 19 0 19 C0 12.73 0 6.46 0 0 Z " fill="#C3CACB" transform="translate(363,449)"/>
<path d="M0 0 C0.99 0 1.98 0 3 0 C3.06058594 0.98742187 3.12117188 1.97484375 3.18359375 2.9921875 C3.26738281 4.27351563 3.35117187 5.55484375 3.4375 6.875 C3.51871094 8.15117187 3.59992188 9.42734375 3.68359375 10.7421875 C3.79206027 13.88300152 3.79206027 13.88300152 5 16 C6.99954746 16.04254356 9.00041636 16.04080783 11 16 C12.99616554 14.00383446 12.40983427 10.18298037 12.5625 7.4375 C12.60568359 6.72658203 12.64886719 6.01566406 12.69335938 5.28320312 C12.79971777 3.52238088 12.90038846 1.7612168 13 0 C13.66 0 14.32 0 15 0 C15.10826289 2.4178712 15.18739789 4.83087556 15.25 7.25 C15.30027344 8.27287109 15.30027344 8.27287109 15.3515625 9.31640625 C15.41836702 12.75683911 15.2596674 14.64415949 13.20703125 17.45703125 C10.02465145 19.68188084 7.78678486 19.48195444 4 19 C1.38406847 17.16884793 1.03010545 16.09031634 0 13 C-0.06937062 10.77181559 -0.08457084 8.54165476 -0.0625 6.3125 C-0.05347656 5.13300781 -0.04445313 3.95351563 -0.03515625 2.73828125 C-0.02355469 1.83464844 -0.01195312 0.93101562 0 0 Z " fill="#C5CCCD" transform="translate(311,449)"/>
<path d="M0 0 C0.66 0.33 1.32 0.66 2 1 C2 1.66 2 2.32 2 3 C1.37351563 2.97679687 0.74703125 2.95359375 0.1015625 2.9296875 C-0.71570313 2.91164063 -1.53296875 2.89359375 -2.375 2.875 C-3.59316406 2.84019531 -3.59316406 2.84019531 -4.8359375 2.8046875 C-7.21342243 2.78629949 -7.21342243 2.78629949 -9 5 C-9.318384 7.1398632 -9.318384 7.1398632 -9.25 9.5 C-9.25773438 10.69109375 -9.25773438 10.69109375 -9.265625 11.90625 C-9.18939909 14.21892751 -9.18939909 14.21892751 -7 16 C-4.78927023 16.24253813 -4.78927023 16.24253813 -2.375 16.125 C-1.55773437 16.10695313 -0.74046875 16.08890625 0.1015625 16.0703125 C1.04128906 16.03550781 1.04128906 16.03550781 2 16 C2 16.66 2 17.32 2 18 C-1.21626531 19.60813266 -4.51223287 19.45492615 -8 19 C-10.5 17.6875 -10.5 17.6875 -12 15 C-12.71283186 10.10670629 -12.94774968 5.69805152 -10.5 1.3125 C-6.80173466 -0.6290893 -4.15807437 -0.33532858 0 0 Z " fill="#D7DFE0" transform="translate(234,449)"/>
<path d="M0 0 C4.95 0 9.9 0 15 0 C15 0.66 15 1.32 15 2 C13.02 2 11.04 2 9 2 C9 7.61 9 13.22 9 19 C8.01 19 7.02 19 6 19 C6 13.39 6 7.78 6 2 C4.02 2 2.04 2 0 2 C0 1.34 0 0.68 0 0 Z " fill="#B9C0C0" transform="translate(163,449)"/>
<path d="M0 0 C0.99 0 1.98 0 3 0 C4.95543532 2.15924126 6.38848122 4.56094454 8 7 C9.65 4.69 11.3 2.38 13 0 C13.99 0.33 14.98 0.66 16 1 C15.57847656 1.46148437 15.15695312 1.92296875 14.72265625 2.3984375 C10.19565671 7.78822989 9.02866102 12.00671163 9 19 C8.34 19 7.68 19 7 19 C6.99742187 18.443125 6.99484375 17.88625 6.9921875 17.3125 C6.69091044 11.3672994 5.14420739 8.13266507 1.27734375 3.62890625 C0 2 0 2 0 0 Z " fill="#DDE5E6" transform="translate(270,449)"/>
<path d="M0 0 C6.15234375 -0.09765625 6.15234375 -0.09765625 8 0 C9 1 9 1 9.1875 3.4375 C9 6 9 6 7 8 C3.375 8.125 3.375 8.125 0 8 C0 5.36 0 2.72 0 0 Z " fill="#1F2020" transform="translate(185,451)"/>
<path d="M0 0 C4.95 0 9.9 0 15 0 C15 0.66 15 1.32 15 2 C12.69 2 10.38 2 8 2 C8 7.61 8 13.22 8 19 C7.34 19 6.68 19 6 19 C6 13.39 6 7.78 6 2 C4.02 2 2.04 2 0 2 C0 1.34 0 0.68 0 0 Z " fill="#CDD4D5" transform="translate(435,449)"/>
<path d="M0 0 C3.375 -0.125 3.375 -0.125 7 0 C7.66 0.66 8.32 1.32 9 2 C8.625 4.625 8.625 4.625 8 7 C5.36 7 2.72 7 0 7 C0 4.69 0 2.38 0 0 Z " fill="#0D0D0D" transform="translate(335,451)"/>
<path d="M0 0 C0.66 0 1.32 0 2 0 C2 5.61 2 11.22 2 17 C5.3 17 8.6 17 12 17 C12 17.66 12 18.32 12 19 C8.04 19 4.08 19 0 19 C0 12.73 0 6.46 0 0 Z " fill="#DCE5E5" transform="translate(422,449)"/>
<path d="M0 0 C3.44216672 2.6598561 3.99504674 5.90288286 5 10 C4.01 9.67 3.02 9.34 2 9 C1.67 7.35 1.34 5.7 1 4 C-1.97 4 -4.94 4 -8 4 C-8.33 5.65 -8.66 7.3 -9 9 C-9.99 9.33 -10.98 9.66 -12 10 C-11.40138258 7.64828869 -10.73075648 5.3140622 -10 3 C-6.78548731 1.39274365 -3.56387464 1.94251815 0 2 C0 1.34 0 0.68 0 0 Z " fill="#D6DEDF" transform="translate(412,458)"/>
<path d="M0 0 C0.66 0 1.32 0 2 0 C2 2.97 2 5.94 2 9 C4.97 9 7.94 9 11 9 C11 9.33 11 9.66 11 10 C8.03 10 5.06 10 2 10 C2 12.97 2 15.94 2 19 C1.34 19 0.68 19 0 19 C0 12.73 0 6.46 0 0 Z " fill="#E9F2F3" transform="translate(363,449)"/>
<path d="M0 0 C0.66 0 1.32 0 2 0 C2 2.97 2 5.94 2 9 C4.64 9 7.28 9 10 9 C10 9.33 10 9.66 10 10 C7.36 10 4.72 10 2 10 C2 12.97 2 15.94 2 19 C1.34 19 0.68 19 0 19 C0 12.73 0 6.46 0 0 Z " fill="#E5EEEF" transform="translate(455,449)"/>
<path d="M0 0 C3.63 0 7.26 0 11 0 C11 0.66 11 1.32 11 2 C8.03 2 5.06 2 2 2 C2 4.31 2 6.62 2 9 C1.34 9 0.68 9 0 9 C0 6.03 0 3.06 0 0 Z " fill="#D1D9DA" transform="translate(384,449)"/>
<path d="M0 0 C2.625 -0.5625 2.625 -0.5625 6 0 C8.39920247 2.7720515 10.21328523 5.80672254 12 9 C11.01 9.33 10.02 9.66 9 10 C8.443125 9.030625 7.88625 8.06125 7.3125 7.0625 C5.31964195 3.81008721 5.31964195 3.81008721 2.25 3.125 C1.5075 3.08375 0.765 3.0425 0 3 C0 2.01 0 1.02 0 0 Z " fill="#B3BABB" transform="translate(335,458)"/>
<path d="M0 0 C0.66 0.33 1.32 0.66 2 1 C2 1.66 2 2.32 2 3 C1.40832031 2.96519531 0.81664062 2.93039062 0.20703125 2.89453125 C-4.7601076 2.72436825 -7.90728689 2.83144791 -12 6 C-11.6875 4.125 -11.6875 4.125 -11 2 C-6.94641576 -0.70238949 -4.81689896 -0.22937614 0 0 Z " fill="#CFD7D7" transform="translate(234,449)"/>
<path d="M0 0 C0.78774617 8.03501094 0.78774617 8.03501094 -2.5 12.0625 C-3.325 12.701875 -4.15 13.34125 -5 14 C-5.33 13.01 -5.66 12.02 -6 11 C-5.34 10.67 -4.68 10.34 -4 10 C-3.60914534 7.90491777 -3.60914534 7.90491777 -3.5 5.5 C-3.34375 3.03125 -3.34375 3.03125 -3 1 C-1 0 -1 0 0 0 Z " fill="#AEB5B6" transform="translate(306,454)"/>
<path d="M0 0 C0.99 0.33 1.98 0.66 3 1 C2.34 2.32 1.68 3.64 1 5 C1.495 5.61875 1.99 6.2375 2.5 6.875 C4 9 4 9 4 11 C3.01 11 2.02 11 1 11 C-0.8125 8.875 -0.8125 8.875 -2 6 C-1.1875 2.6875 -1.1875 2.6875 0 0 Z " fill="#CAD1D2" transform="translate(193,457)"/>
<path d="M0 0 C2.5654594 2.5654594 2.54046087 4.47686668 3 8 C1.02 8 -0.96 8 -3 8 C-2.01 5.36 -1.02 2.72 0 0 Z " fill="#141515" transform="translate(408,452)"/>
<path d="M0 0 C2.15377564 2.62198774 3.40072174 4.64404172 4 8 C2.02 8 0.04 8 -2 8 C-1.47731534 5.23723823 -0.89130413 2.6739124 0 0 Z " fill="#141515" transform="translate(209,452)"/>
<path d="M0 0 C0.99 0.33 1.98 0.66 3 1 C0.69 3.97 -1.62 6.94 -4 10 C-4.66 9.01 -5.32 8.02 -6 7 C-4.02 4.69 -2.04 2.38 0 0 Z " fill="#C9D0D1" transform="translate(252,449)"/>
<path d="M0 0 C2.31 0.33 4.62 0.66 7 1 C7 1.33 7 1.66 7 2 C5.35 2 3.7 2 2 2 C2 4.64 2 7.28 2 10 C1.34 10 0.68 10 0 10 C0 6.7 0 3.4 0 0 Z " fill="#E7F0F1" transform="translate(333,458)"/>
<path d="M0 0 C0.99 0.33 1.98 0.66 3 1 C3.25 6.625 3.25 6.625 1 10 C0.01 9.67 -0.98 9.34 -2 9 C-1.34 8.34 -0.68 7.68 0 7 C-0.28674418 4.99279077 -0.61866701 2.9914056 -1 1 C-0.67 0.67 -0.34 0.34 0 0 Z " fill="#D0D8D9" transform="translate(343,450)"/>
<path d="M0 0 C0.99 0 1.98 0 3 0 C5.25 2.75 5.25 2.75 7 6 C6.609375 8.203125 6.609375 8.203125 6 10 C4.99421411 8.71283353 3.99553202 7.42011342 3 6.125 C2.443125 5.40570313 1.88625 4.68640625 1.3125 3.9453125 C0 2 0 2 0 0 Z " fill="#C5CDCD" transform="translate(270,449)"/>
<path d="M0 0 C0.99 0 1.98 0 3 0 C3.69699552 1.45381897 4.38233866 2.91322953 5.0625 4.375 C5.63677734 5.59316406 5.63677734 5.59316406 6.22265625 6.8359375 C6.47917969 7.55007813 6.73570312 8.26421875 7 9 C6.67 9.66 6.34 10.32 6 11 C3.1673866 9.5836933 2.98292167 7.85502707 1.875 4.9375 C1.52179688 4.01839844 1.16859375 3.09929687 0.8046875 2.15234375 C0.53914062 1.44207031 0.27359375 0.73179687 0 0 Z " fill="#CAD2D2" transform="translate(208,449)"/>
<path d="M0 0 C3.3 0.99 6.6 1.98 10 3 C10 3.66 10 4.32 10 5 C6.63295715 5.2295711 4.58629732 5.33943529 1.625 3.625 C1.08875 3.08875 0.5525 2.5525 0 2 C0 1.34 0 0.68 0 0 Z " fill="#DFE7E8" transform="translate(290,463)"/>
<path d="M0 0 C0.33 0 0.66 0 1 0 C1 2.97 1 5.94 1 9 C1.66 9 2.32 9 3 9 C2.34 11.64 1.68 14.28 1 17 C0.67 17 0.34 17 0 17 C0 11.39 0 5.78 0 0 Z " fill="#EDF6F7" transform="translate(242,450)"/>
<path d="M0 0 C0.99 0.33 1.98 0.66 3 1 C0.525 4.465 0.525 4.465 -2 8 C-2.99 7.67 -3.98 7.34 -5 7 C-3.35 4.69 -1.7 2.38 0 0 Z " fill="#C7CECF" transform="translate(283,449)"/>
<path d="M0 0 C0.66 0.33 1.32 0.66 2 1 C1.01 2.98 0.02 4.96 -1 7 C-1.99 7 -2.98 7 -4 7 C-4.99 7.495 -4.99 7.495 -6 8 C-4.55746343 4.63408134 -2.66735273 2.48952921 0 0 Z " fill="#BBC2C2" transform="translate(298,295)"/>
</svg>
